<?xml version="1.0" encoding="UTF-8"?><svg id="a" xmlns="http://www.w3.org/2000/svg" viewBox="0 0 150 150"><defs><style>.e{fill:none;}.f{fill:#00c75d;}</style></defs><g id="b"><g id="c"><path id="d" class="e" d="M0,0H150V150H0V0Z"/></g></g><path class="f" d="M80.54,14H33.87v4.17c0,13.86,7.6,26.61,19.78,33.23-23.49,10.08-34.36,37.29-24.28,60.78,10.08,23.49,37.29,34.36,60.78,24.28,8.02-3.44,14.9-9.08,19.85-16.26v15.8h8.35V51.81c-.03-20.87-16.94-37.78-37.81-37.81Zm-38,8.34h38c14.65,.02,27.07,10.79,29.17,25.29h-38c-14.67,0-27.11-10.77-29.2-25.29h.03Zm29.39,109.51c-20.95,0-37.94-16.99-37.94-37.94s16.99-37.94,37.94-37.94,37.94,16.99,37.94,37.94h0c-.04,20.95-17,37.91-37.94,37.94Zm38.07-64.22c-3.14-4.53-7.07-8.47-11.59-11.63h11.59v11.63Z"/></svg>