<svg width="256" height="256" viewBox="0 0 256 256" fill="none" xmlns="http://www.w3.org/2000/svg">
<path d="M139.208 43H77.2077V48.6773C77.2077 67.9483 87.859 84.6604 103.518 93.3763C81.5 102.892 66 124.961 66 150.629C66 185.093 93.741 213 128 213C148.985 213 167.505 202.525 178.713 186.452V207.323H190V94.016C189.921 65.8692 167.267 43 139.208 43ZM128 201.645C100.021 201.645 77.2872 178.776 77.2872 150.629C77.2872 122.483 99.941 99.6933 128 99.6933C155.979 99.6933 178.713 122.563 178.713 150.709C178.713 178.856 155.979 201.645 128 201.645ZM178.633 114.886C167.426 98.8937 148.905 88.3387 127.921 88.3387C108.049 88.3387 91.5949 73.5456 88.8923 54.3547H139.208C160.987 54.3547 178.633 72.1063 178.633 94.016V114.886Z" fill="white"/>
</svg>
